<?xml version="1.0" encoding="UTF-8"?>
<!DOCTYPE svg PUBLIC "-//W3C//DTD SVG 1.1//EN" "http://www.w3.org/Graphics/SVG/1.1/DTD/svg11.dtd">
<!-- Creator: CorelDRAW 2019 (64-Bit) -->
<svg xmlns="http://www.w3.org/2000/svg" xml:space="preserve" width="2313px" height="1080px" version="1.1" style="shape-rendering:geometricPrecision; text-rendering:geometricPrecision; image-rendering:optimizeQuality; fill-rule:evenodd; clip-rule:evenodd"
viewBox="0 0 2313 1080"
 xmlns:xlink="http://www.w3.org/1999/xlink"
 xmlns:xodm="http://www.corel.com/coreldraw/odm/2003">
 <defs>
  <style type="text/css">
   <![CDATA[
    .fil2 {fill:#FEFEFE}
    .fil1 {fill:#FEFEFE}
    .fil0 {fill:#2F318B}
   ]]>
  </style>
 </defs>
 <g id="Layer_x0020_1">
  <metadata id="CorelCorpID_0Corel-Layer"/>
  <path class="fil0" d="M0 1079.99l2313 0 0 -1079.99 -2313 0 0 1079.99zm2118.58 -151.2l-64.8 0 -27 59.4 -68.4 0 126 -264.59 34.2 0 34.2 0 129.61 264.59 -70.21 0 -28.8 -59.4 -64.8 0zm0 -142.19l-1.79 -1.8 -43.21 98.99 45 0 43.2 0 -43.2 -97.19zm-2087.98 -63l129.61 0c25.19,0 45,0 57.6,1.8 12.6,1.79 23.41,5.39 34.19,12.59 9.01,5.41 18.01,12.6 25.21,21.61 5.4,9 9,19.79 9,30.6 0,12.6 -3.6,23.39 -12.6,34.19 -7.2,10.8 -18.01,18.01 -32.39,23.41 19.79,5.39 34.19,12.59 44.99,23.4 10.8,12.59 16.2,25.19 16.2,41.39 0,10.8 -3.61,23.4 -10.81,34.21 -7.18,10.79 -16.19,19.79 -26.98,27 -12.62,7.19 -27.01,10.8 -45.01,12.6 -9,1.8 -28.8,1.8 -59.4,1.8 -5.4,0 -12.6,0 -17.99,0l-111.62 0 0 -264.6zm129.61 45c-7.21,0 -16.2,0 -25.2,0l-37.8 0 0 61.2 43.2 0c7.2,0 14.4,0 19.8,0 12.59,-1.8 21.61,-1.8 27,-1.8 10.8,-1.8 19.8,-3.61 27,-9 5.4,-5.41 9,-12.6 9,-21.61 0,-7.19 -3.6,-14.39 -9,-19.8 -5.39,-5.39 -12.59,-7.2 -23.4,-8.99 -5.41,0 -14.4,0 -30.6,0zm0 104.39c-3.6,0 -7.21,0 -10.8,0l-52.2 0 0 70.2 59.4 0c1.81,0 1.81,0 3.6,0 21.61,0 35.99,0 41.41,0 10.78,-1.8 17.99,-5.4 23.38,-10.8 7.21,-5.39 9.01,-14.39 9.01,-23.39 0,-7.21 -1.8,-14.41 -5.39,-19.8 -5.41,-5.41 -12.61,-9.01 -21.61,-12.61 -7.2,-1.79 -23.4,-3.6 -46.8,-3.6zm197.99 115.21l0 -264.6 239.4 0 0 45 -174.59 0 0 59.4 161.99 0 0 43.2 -161.99 0 0 71.99 179.98 0 0 45.01 -244.79 0zm432 -219.6c-3.6,0 -9,0 -14.4,0l-50.4 0 0 66.59 46.8 0c7.2,0 12.59,0 18,0 21.6,0 36,-1.8 41.4,-3.59 7.2,-1.8 14.4,-5.4 18,-10.81 5.4,-5.39 7.21,-10.79 7.21,-19.8 0,-8.99 -3.61,-16.19 -9.02,-21.6 -5.39,-5.4 -14.39,-9 -25.19,-10.79 -3.6,0 -14.4,0 -32.4,0zm0 124.19c-5.41,-5.4 -12.59,-9 -19.8,-12.6 -7.2,-1.8 -18,-1.8 -32.39,-1.8l-12.61 0 0 109.81 -66.59 0 0 -264.6 131.39 0 7.21 0c34.19,0 59.4,1.8 75.59,7.19 14.39,5.4 26.99,12.61 36,25.2 10.79,12.61 14.41,27.01 14.41,41.4 0,19.8 -7.21,36 -21.61,50.41 -14.41,12.59 -34.21,19.79 -63,23.4 14.4,7.19 25.19,14.39 34.2,23.39 9,7.2 21.6,21.6 37.79,43.2l39.6 50.41 -79.2 0 -46.79 -57.6c-16.2,-19.81 -26.99,-32.41 -34.2,-37.81zm178.2 9l64.8 -3.6c3.6,16.21 10.8,28.81 23.4,37.8 10.8,7.2 27,12.6 46.8,12.6 21.59,0 36,-3.59 46.8,-10.8 10.8,-7.19 16.2,-16.2 16.2,-27 0,-5.4 -1.79,-10.8 -7.2,-14.4 -3.61,-5.39 -10.79,-9 -23.41,-12.6 -7.18,-1.8 -25.19,-5.4 -52.19,-10.8 -34.21,-7.2 -59.4,-16.2 -73.81,-26.99 -19.8,-14.4 -28.79,-32.41 -28.79,-52.21 0,-14.4 3.6,-26.99 14.4,-37.8 9,-12.59 21.6,-21.6 39.6,-26.99 17.99,-7.2 39.6,-10.81 63,-10.81 41.4,0 72,9 91.8,23.41 21.59,14.39 32.4,34.2 32.4,57.6l-64.8 1.79c-3.6,-12.59 -8.99,-23.4 -18,-28.79 -9,-5.4 -23.41,-9 -41.4,-9 -19.8,0 -34.2,3.6 -45.01,9 -7.2,5.39 -10.78,10.8 -10.78,18 0,5.4 3.58,10.79 10.78,14.4 7.21,7.19 28.82,12.59 59.4,17.99 32.4,7.21 55.82,12.6 70.21,19.81 16.19,7.2 27,16.2 36,27 9.01,10.79 12.59,25.19 12.59,41.39 0,16.21 -3.58,30.6 -14.39,43.2 -10.8,12.6 -25.21,23.4 -43.2,28.8 -19.8,7.2 -43.2,10.8 -71.99,10.8 -39.6,0 -72.02,-7.19 -93.61,-23.4 -21.61,-16.2 -34.21,-37.8 -39.6,-68.4zm446.4 -115.19l-1.79 -1.8 -43.22 98.99 45.01 0 43.2 0 -43.2 -97.19zm0 142.2l-64.81 0 -26.99 59.4 -68.41 0 126 -264.6 34.21 0 34.2 0 129.61 264.6 -70.21 0 -28.81 -59.4 -64.79 0zm198 59.4l0 -264.6 97.19 0 59.4 179.99 57.59 -179.99 97.21 0 0 264.6 -59.4 0 0 -208.81 -64.81 208.81 -62.98 0 -63.01 -208.81 0 208.81 -61.19 0zm563.39 -336.61l64.79 0 0 -565.19 -66.6 0 1.81 565.19zm-1873.99 -153.24l299.35 -1.53 0 175.81 -71.17 0 0 -97.78 -182.35 0 -60.01 98.35 -104.41 0 113.4 -174.6 5.2 0.13 -0.01 -0.38zm1483.39 151.45l349.19 -541.8 -1.79 543.59 -73.8 0 0 -302.39 -192.61 313.2 -80.99 0 -8.99 0 8.99 -12.6zm-1436.38 -232.2l-25.2 39.6 25.2 0 129.6 0 122.39 0 0 -368.99 -41.41 0 -80.98 129.59 -129.6 199.8zm129.6 -17.99l-36 1.79 75.6 -120.6 14.41 0 0 118.81 -54.01 0zm-129.6 -57.61l-217.8 331.2 -59.4 0 0 -41.41 277.2 -424.79 77.41 -118.79 52.19 0 36 0 -36 55.8 -129.6 197.99zm295.19 331.2l81 0 0 -584.99 -84.6 0 3.6 584.99zm329.39 -199.8l-133.2 206.99 108.01 0 25.19 -41.4 221.4 -372.59 147.61 0 30.61 0 55.8 -75.6 -86.41 1.8 -189 1.81 -180.01 278.99zm0 -75.6l-185.4 282.59 -44.99 0 0 -48.6 230.39 -361.78 3.61 -5.41 -3.61 0 -219.58 0 -5.41 -21.59 27 -46.8 197.99 -1.8 131.4 0 -131.4 203.39zm0 -242.99l-172.8 0 37.81 -66.6 134.99 0 369.01 0 162 0 -48.61 64.79 -113.39 0 -369.01 1.81zm369.01 521.99l-54 0 54 -82.8 307.79 -476.99 18 -28.8 9.01 0 0 408.6 -27.01 41.39 -53.99 84.6 0 -277.2 -212.4 331.2 -41.4 0zm0 -284.4l-162 244.8 1.8 39.6 54 0 106.2 -160.2 278.99 -428.39 -79.2 0 -199.79 304.19zm307.79 226.8l-28.8 43.2 28.8 0 75.6 0 30.61 -48.6 28.79 -43.21 316.8 -484.19 -93.61 0 -214.19 333.01 0 -23.41 -9 12.6 -28.79 43.2 -106.21 167.4zm106.21 -244.8l-34.21 54 -1.81 -340.19 36.02 0 28.79 0 9 0 0 230.39 -9 14.4 -28.79 41.4z"/>
  <path class="fil1" d="M2118.58 928.79l-64.8 0 -27 59.4 -68.4 0 126 -264.59 34.2 0 34.2 0 129.61 264.59 -70.21 0 -28.8 -59.4 -64.8 0zm0 -142.19l-1.79 -1.8 -43.21 98.99 45 0 43.2 0 -43.2 -97.19z"/>
  <path class="fil2" d="M2176.19 651.59l64.79 0 0 -565.19 -66.6 0 1.81 565.19zm-1873.99 -153.24l299.35 -1.53 0 175.81 -71.17 0 0 -97.78 -182.35 0 -60.01 98.35 -104.41 0 113.4 -174.6 5.2 0.13 -0.01 -0.38zm1483.39 151.45l349.19 -541.8 -1.79 543.59 -73.8 0 0 -302.39 -192.61 313.2 -80.99 0 -8.99 0 8.99 -12.6zm-1436.38 -232.2l-25.2 39.6 25.2 0 129.6 0 122.39 0 0 -368.99 -41.41 0 -80.98 129.59 -129.6 199.8zm129.6 -17.99l-36 1.79 75.6 -120.6 14.41 0 0 118.81 -54.01 0zm-129.6 -57.61l-217.8 331.2 -59.4 0 0 -41.41 277.2 -424.79 77.41 -118.79 52.19 0 36 0 -36 55.8 -129.6 197.99zm295.19 331.2l81 0 0 -584.99 -84.6 0 3.6 584.99zm329.39 -199.8l-133.2 206.99 108.01 0 25.19 -41.4 221.4 -372.59 147.61 0 30.61 0 55.8 -75.6 -86.41 1.8 -189 1.81 -180.01 278.99zm0 -75.6l-185.4 282.59 -44.99 0 0 -48.6 230.39 -361.78 3.61 -5.41 -3.61 0 -219.58 0 -5.41 -21.59 27 -46.8 197.99 -1.8 131.4 0 -131.4 203.39zm0 -242.99l-172.8 0 37.81 -66.6 134.99 0 369.01 0 162 0 -48.61 64.79 -113.39 0 -369.01 1.81zm369.01 521.99l-54 0 54 -82.8 307.79 -476.99 18 -28.8 9.01 0 0 408.6 -27.01 41.39 -53.99 84.6 0 -277.2 -212.4 331.2 -41.4 0zm0 -284.4l-162 244.8 1.8 39.6 54 0 106.2 -160.2 278.99 -428.39 -79.2 0 -199.79 304.19zm307.79 226.8l-28.8 43.2 28.8 0 75.6 0 30.61 -48.6 28.79 -43.21 316.8 -484.19 -93.61 0 -214.19 333.01 0 -23.41 -9 12.6 -28.79 43.2 -106.21 167.4zm106.21 -244.8l-34.21 54 -1.81 -340.19 36.02 0 28.79 0 9 0 0 230.39 -9 14.4 -28.79 41.4z"/>
  <polygon class="fil2" points="1612.8,988.19 1612.8,723.6 1709.99,723.6 1769.39,903.59 1826.98,723.6 1924.19,723.6 1924.19,988.19 1864.79,988.19 1864.79,779.39 1799.98,988.19 1737,988.19 1673.99,779.39 1673.99,988.19 "/>
  <path class="fil2" d="M1414.8 928.79l-64.81 0 -26.99 59.4 -68.41 0 126 -264.59 34.21 0 34.2 0 129.61 264.59 -70.21 0 -28.81 -59.4 -64.79 0zm0 -142.19l-1.79 -1.8 -43.22 98.99 45.01 0 43.2 0 -43.2 -97.19z"/>
  <path class="fil2" d="M968.4 901.79l64.79 -3.6c3.61,16.21 10.81,28.81 23.41,37.8 10.8,7.2 27,12.61 46.8,12.61 21.59,0 36,-3.61 46.8,-10.8 10.8,-7.21 16.2,-16.21 16.2,-27.01 0,-5.4 -1.79,-10.8 -7.2,-14.4 -3.61,-5.39 -10.79,-9 -23.41,-12.6 -7.18,-1.79 -25.19,-5.4 -52.19,-10.8 -34.21,-7.2 -59.4,-16.2 -73.81,-26.99 -19.8,-14.4 -28.79,-32.41 -28.79,-52.21 0,-14.4 3.6,-26.99 14.4,-37.79 9,-12.6 21.6,-21.61 39.6,-27 17.99,-7.2 39.6,-10.81 63,-10.81 41.4,0 72,9 91.8,23.41 21.59,14.4 32.4,34.2 32.4,57.6l-64.8 1.79c-3.6,-12.59 -8.99,-23.4 -18,-28.79 -9,-5.4 -23.41,-9 -41.4,-9 -19.8,0 -34.2,3.6 -45.01,9 -7.2,5.39 -10.78,10.8 -10.78,18 0,5.4 3.58,10.79 10.78,14.4 7.21,7.2 28.82,12.59 59.4,18 32.4,7.2 55.82,12.6 70.21,19.8 16.19,7.2 27,16.2 35.99,27 9.02,10.79 12.6,25.19 12.6,41.39 0,16.21 -3.58,30.6 -14.39,43.2 -10.8,12.6 -25.21,23.4 -43.2,28.8 -19.8,7.2 -43.2,10.8 -71.99,10.8 -39.6,0 -72.02,-7.2 -93.61,-23.4 -21.61,-16.2 -34.21,-37.8 -39.6,-68.4z"/>
  <path class="fil2" d="M790.2 892.79c-5.4,-5.4 -12.59,-9 -19.8,-12.6 -7.2,-1.8 -18,-1.8 -32.39,-1.8l-12.61 0 0 109.8 -66.59 0 0 -264.59 131.39 0 7.21 0c34.19,0 59.4,1.8 75.59,7.19 14.39,5.41 26.99,12.61 36,25.21 10.79,12.6 14.41,27 14.41,41.39 0,19.8 -7.21,36 -21.61,50.41 -14.41,12.59 -34.21,19.79 -63,23.39 14.4,7.2 25.19,14.4 34.2,23.4 9,7.2 21.6,21.6 37.79,43.21l39.6 50.39 -79.2 0 -46.8 -57.6c-16.19,-19.8 -26.98,-32.4 -34.19,-37.8zm0 -124.19c-3.6,0 -9.01,0 -14.4,0l-50.4 0 0 66.6 46.8 0c7.2,0 12.6,0 18,0 21.6,0 36,-1.81 41.4,-3.6 7.2,-1.8 14.4,-5.4 18,-10.81 5.4,-5.39 7.21,-10.79 7.21,-19.8 0,-8.99 -3.61,-16.19 -9.02,-21.6 -5.39,-5.4 -14.39,-9 -25.19,-10.79 -3.6,0 -14.4,0 -32.4,0z"/>
  <polygon class="fil2" points="358.2,988.19 358.2,723.6 597.6,723.6 597.6,768.6 423.01,768.6 423.01,828 585,828 585,871.19 423.01,871.19 423.01,943.19 603,943.19 603,988.19 "/>
  <path class="fil2" d="M30.6 723.6l129.61 0c25.19,0 44.99,0 57.6,1.8 12.6,1.79 23.41,5.39 34.19,12.59 9.01,5.41 18.01,12.6 25.21,21.61 5.4,9 9,19.79 9,30.6 0,12.6 -3.6,23.39 -12.6,34.2 -7.2,10.8 -18.01,18 -32.39,23.4 19.79,5.39 34.18,12.59 44.99,23.39 10.8,12.6 16.2,25.2 16.2,41.4 0,10.8 -3.61,23.4 -10.81,34.2 -7.18,10.8 -16.2,19.8 -26.98,27.01 -12.62,7.19 -27.01,10.8 -45.01,12.59 -9,1.8 -28.8,1.8 -59.4,1.8 -5.4,0 -12.6,0 -17.99,0l-111.62 0 0 -264.59zm129.61 45c-7.21,0 -16.2,0 -25.2,0l-37.8 0 0 61.2 43.2 0c7.2,0 14.4,0 19.8,0 12.59,-1.8 21.61,-1.8 27,-1.8 10.8,-1.8 19.8,-3.6 27,-9 5.4,-5.41 9,-12.6 9,-21.61 0,-7.19 -3.6,-14.39 -9,-19.8 -5.39,-5.39 -12.59,-7.2 -23.4,-8.99 -5.41,0 -14.4,0 -30.6,0zm0 104.39c-3.6,0 -7.21,0 -10.81,0l-52.19 0 0 70.2 59.4 0c1.81,0 1.81,0 3.6,0 21.61,0 35.99,0 41.41,0 10.78,-1.8 17.99,-5.39 23.38,-10.8 7.2,-5.39 9.01,-14.4 9.01,-23.39 0,-7.21 -1.81,-14.41 -5.39,-19.8 -5.41,-5.41 -12.62,-9.01 -21.61,-12.61 -7.2,-1.8 -23.4,-3.6 -46.8,-3.6z"/>
 </g>
</svg>
